# xmcd CD database file
#
# Track frame offsets:
#	150
#	11948
#	26427
#	39027
#	52045
#	64706
#	79322
#	90533
#	103154
#	114796
#	125516
#	139162
#	153956
#	164776
#	178681
#	193629
#
# Disc length: 2741 seconds
#
# Revision: 0
# Processed by: cddbd v1.5.2PL0 Copyright (c) Steve Scherf et al.
# Submitted via: CDex 1.70beta2
#
DISCID=d30ab310
DTITLE=Joe Cuba Sextet - Boogaloo - the very best of Joe Cuba Sextet,2
DYEAR=2005
DGENRE=Salsa
TTITLE0=Tremendo coco
TTITLE1=Oye como va (Aprieta)
TTITLE2=Pancho Foo
TTITLE3=Como Rien
TTITLE4=La La Pa
TTITLE5=Joe cuba's Mambo
TTITLE6=Stuff N Things
TTITLE7=Guaracha y bembe
TTITLE8=Chichon
TTITLE9=Que va
TTITLE10=El Hueso
TTITLE11=Aunque Tu
TTITLE12=Wabble Cha
TTITLE13=Ya no tengo amigo
TTITLE14=So what?
TTITLE15=Remember me
EXTD=YEAR: 2005
EXTT0=
EXTT1=
EXTT2=
EXTT3=
EXTT4=
EXTT5=
EXTT6=
EXTT7=
EXTT8=
EXTT9=
EXTT10=
EXTT11=
EXTT12=
EXTT13=
EXTT14=
EXTT15=
PLAYORDER=
